<svg width="39" height="33" viewBox="0 0 39 33" fill="none" xmlns="http://www.w3.org/2000/svg">
<path d="M37.4257 30.8567H33.4985V8.64209C33.4985 8.11176 32.9997 7.6818 32.3846 7.6818H28.5126V4.80094C28.5126 4.27061 28.0139 3.84066 27.3987 3.84066H25.2337V0.959798C25.2337 0.429464 24.735 -0.000488281 24.1198 -0.000488281H14.9912C14.376 -0.000488281 13.8772 0.429464 13.8772 0.959798V3.84066H11.7123C11.0971 3.84066 10.5983 4.27061 10.5983 4.80094V7.6818H6.72639C6.1112 7.6818 5.61246 8.11176 5.61246 8.64209V30.8567H1.68525C1.07006 30.8567 0.57132 31.2867 0.57132 31.817C0.57132 32.3473 1.07006 32.7773 1.68525 32.7773H37.4256C38.0408 32.7773 38.5396 32.3473 38.5396 31.817C38.5396 31.2867 38.0409 30.8567 37.4257 30.8567ZM16.1051 1.92008H23.0058V3.84066H16.1051V1.92008ZM12.8262 5.76123H26.2847V7.6818H12.8262V5.76123ZM18.4415 30.8567H13.9858V25.1116H18.4415V30.8567ZM25.1251 30.8567H20.6694V25.1116H25.1251V30.8567ZM31.2706 30.8567H27.353V24.1513C27.353 23.621 26.8543 23.191 26.2391 23.191H12.8719C12.2567 23.191 11.7579 23.621 11.7579 24.1513V30.8567H7.84032V9.60238H31.2706V30.8567Z" fill="#7261FF"/>
<path d="M26.2392 20.7895C26.8544 20.7895 27.3531 20.3595 27.3531 19.8292V18.4368C27.3531 17.9065 26.8544 17.4766 26.2392 17.4766C25.624 17.4766 25.1252 17.9065 25.1252 18.4368V19.8292C25.1252 20.3595 25.624 20.7895 26.2392 20.7895Z" fill="#7261FF"/>
<path d="M21.7835 20.7895C22.3986 20.7895 22.8974 20.3595 22.8974 19.8292V18.4368C22.8974 17.9065 22.3986 17.4766 21.7835 17.4766C21.1683 17.4766 20.6695 17.9065 20.6695 18.4368V19.8292C20.6695 20.3595 21.1683 20.7895 21.7835 20.7895Z" fill="#7261FF"/>
<path d="M17.3277 20.7895C17.9429 20.7895 18.4416 20.3595 18.4416 19.8292V18.4368C18.4416 17.9065 17.9429 17.4766 17.3277 17.4766C16.7125 17.4766 16.2138 17.9065 16.2138 18.4368V19.8292C16.2138 20.3595 16.7125 20.7895 17.3277 20.7895Z" fill="#7261FF"/>
<path d="M12.872 20.7895C13.4872 20.7895 13.9859 20.3595 13.9859 19.8292V18.4368C13.9859 17.9065 13.4872 17.4766 12.872 17.4766C12.2568 17.4766 11.7581 17.9065 11.7581 18.4368V19.8292C11.7581 20.3595 12.2568 20.7895 12.872 20.7895Z" fill="#7261FF"/>
<path d="M26.2392 15.6679C26.8544 15.6679 27.3531 15.238 27.3531 14.7076V13.3153C27.3531 12.7849 26.8544 12.355 26.2392 12.355C25.624 12.355 25.1252 12.7849 25.1252 13.3153V14.7076C25.1252 15.238 25.624 15.6679 26.2392 15.6679Z" fill="#7261FF"/>
<path d="M21.7835 15.6679C22.3986 15.6679 22.8974 15.238 22.8974 14.7076V13.3153C22.8974 12.7849 22.3986 12.355 21.7835 12.355C21.1683 12.355 20.6695 12.7849 20.6695 13.3153V14.7076C20.6695 15.238 21.1683 15.6679 21.7835 15.6679Z" fill="#7261FF"/>
<path d="M17.3277 15.6679C17.9429 15.6679 18.4416 15.238 18.4416 14.7076V13.3153C18.4416 12.7849 17.9429 12.355 17.3277 12.355C16.7125 12.355 16.2138 12.7849 16.2138 13.3153V14.7076C16.2138 15.238 16.7125 15.6679 17.3277 15.6679Z" fill="#7261FF"/>
<path d="M12.872 15.6679C13.4872 15.6679 13.9859 15.238 13.9859 14.7076V13.3153C13.9859 12.7849 13.4872 12.355 12.872 12.355C12.2568 12.355 11.7581 12.7849 11.7581 13.3153V14.7076C11.7581 15.238 12.2568 15.6679 12.872 15.6679Z" fill="#7261FF"/>
</svg>
