<svg width="34" height="33" viewBox="0 0 34 33" fill="none" xmlns="http://www.w3.org/2000/svg">
<g clip-path="url(#clip0_1_511)">
<path d="M29.2215 8.48107C31.5484 8.48107 33.4415 6.58801 33.4415 4.26104C33.4415 1.93408 31.5485 0.0410156 29.2215 0.0410156C26.8946 0.0410156 25.0015 1.93414 25.0015 4.26104C25.0015 6.58794 26.8946 8.48107 29.2215 8.48107ZM29.2215 1.95778C30.4915 1.95778 31.5247 2.99101 31.5247 4.26104C31.5247 5.531 30.4915 6.56424 29.2215 6.56424C27.9515 6.56424 26.9183 5.53107 26.9183 4.26104C26.9183 2.99101 27.9515 1.95778 29.2215 1.95778Z" fill="#7261FF"/>
<path d="M32.547 30.8213H31.8623V22.2675C32.0421 22.4207 32.2627 22.4967 32.4828 22.4967C32.7474 22.4967 33.0108 22.3878 33.2001 22.1743C33.5514 21.7784 33.5151 21.1726 33.1192 20.8214L30.3096 18.329V13.3619C30.3096 12.8326 29.8805 12.4035 29.3512 12.4035C28.8219 12.4035 28.3928 12.8326 28.3928 13.3619V16.6286L23.367 12.1703V7.20982C23.367 3.2623 20.1555 0.0507812 16.208 0.0507812C12.2605 0.0507812 9.04894 3.2623 9.04894 7.20982V9.29156C7.99979 7.33537 6.98815 5.95321 6.90062 5.83469C6.71992 5.5901 6.43387 5.44583 6.1298 5.44583C5.82572 5.44583 5.53967 5.59016 5.35898 5.83469C5.1724 6.08726 0.789447 12.0777 0.789447 17.1349C0.789447 19.6032 1.28169 21.9389 2.17551 23.7115C2.96396 25.2753 4.00506 26.2839 5.17138 26.6398V30.8212H1.68608C1.15678 30.8212 0.727661 31.2503 0.727661 31.7796C0.727661 32.3089 1.15678 32.738 1.68608 32.738H32.547C33.0763 32.738 33.5054 32.3089 33.5054 31.7796C33.5054 31.2504 33.0763 30.8213 32.547 30.8213ZM17.2097 30.8213H15.2929V23.7018H17.2097V30.8213ZM18.1681 21.7849H14.3345C13.8052 21.7849 13.376 22.2141 13.376 22.7434V30.8213H11.4592V20.5683L20.7023 12.3688L29.9454 20.5683V30.8213H19.1265V22.7434C19.1265 22.2141 18.6975 21.7849 18.1681 21.7849ZM10.9657 7.20982C10.9657 4.31924 13.3173 1.96761 16.2079 1.96761C19.0985 1.96761 21.4501 4.31924 21.4501 7.20982V10.4698L21.3384 10.3707C20.9754 10.0488 20.4292 10.0488 20.0664 10.3707L17.1181 12.9861V7.89049C17.1181 7.36119 16.689 6.93207 16.1597 6.93207C15.6304 6.93207 15.2013 7.36119 15.2013 7.89049V10.8117L14.5626 10.1666C14.1901 9.79045 13.5834 9.78744 13.2072 10.1599C12.831 10.5323 12.828 11.1391 13.2005 11.5153L15.2013 13.5361V14.6865L12.1628 17.3819C11.8735 17.0118 11.5971 16.5984 11.4263 16.239C11.3526 15.4558 11.1891 14.66 10.9657 13.8751V7.20982ZM3.88691 22.8486C3.12549 21.3384 2.70608 19.3093 2.70608 17.135C2.70608 13.9062 4.91887 10.0069 6.13012 8.1145C6.99071 9.45756 8.35517 11.8119 9.07385 14.2227C9.08261 14.261 9.09398 14.2983 9.10721 14.3347C9.38112 15.2809 9.55319 16.2335 9.55319 17.135C9.55319 18.1 9.47019 19.036 9.3118 19.9111L8.28553 20.8214C7.88957 21.1726 7.85328 21.7784 8.20457 22.1744C8.30763 22.2905 8.43293 22.3749 8.56813 22.4284C8.50539 22.5721 8.44079 22.7131 8.37242 22.8487C7.72562 24.1315 6.90816 24.8671 6.12967 24.8671C5.35118 24.8671 4.53372 24.1314 3.88691 22.8486ZM7.08808 26.6399C8.00407 26.3603 8.84262 25.6778 9.54239 24.6402V30.8212H7.08808V26.6399Z" fill="#7261FF"/>
<path d="M22.1386 28.3336H26.7701C27.2994 28.3336 27.7286 27.9044 27.7286 27.3751V22.7436C27.7286 22.2143 27.2994 21.7852 26.7701 21.7852H22.1386C21.6093 21.7852 21.1802 22.2143 21.1802 22.7436V27.3751C21.1802 27.9044 21.6093 28.3336 22.1386 28.3336ZM23.097 23.702H25.8117V26.4167H23.097V23.702Z" fill="#7261FF"/>
</g>
<defs>
<clipPath id="clip0_1_511">
<rect width="32.7778" height="32.7778" fill="white" transform="translate(0.727669 0.000488281)"/>
</clipPath>
</defs>
</svg>
