<svg width="34" height="33" viewBox="0 0 34 33" fill="none" xmlns="http://www.w3.org/2000/svg">
<g clip-path="url(#clip0_1_554)">
<path d="M33.5055 16.3559C33.5053 15.883 33.2267 15.4526 32.7956 15.2591L30.3028 14.14L32.7958 13.0209C33.2269 12.8274 33.5055 12.3967 33.5055 11.9241C33.5055 11.4512 33.2269 11.0208 32.7956 10.827L22.4785 6.19591C22.47 6.19191 22.4615 6.18791 22.453 6.1844L17.6093 4.01026C17.2962 3.86922 16.9374 3.86947 16.6243 4.01001L16.6245 4.00976L1.43752 10.827C1.0064 11.0208 0.727814 11.4512 0.727814 11.9241C0.727814 12.3967 1.0064 12.8274 1.43777 13.0212L3.93051 14.14L1.43777 15.2591C1.00665 15.4526 0.727814 15.883 0.727814 16.3559C0.727564 16.8288 1.0064 17.2592 1.43777 17.453L4.00203 18.6041L1.43752 19.7554C1.0064 19.949 0.727814 20.3796 0.727814 20.8522C0.727814 21.3251 1.0064 21.7555 1.43777 21.9493L16.6243 28.7663C16.7808 28.8369 16.9489 28.8719 17.1169 28.8719C17.2847 28.8719 17.4525 28.8366 17.6088 28.7666L32.7958 21.9491C33.2269 21.7555 33.5055 21.3249 33.5055 20.8522C33.5055 20.3794 33.2269 19.949 32.7956 19.7552L30.2313 18.6041L32.7958 17.453C33.2269 17.2594 33.5055 16.8288 33.5055 16.3559ZM12.1912 8.10497L14.802 9.27707L11.9964 10.5367L9.42339 9.34759L12.1912 8.10497ZM17.1467 10.3299L19.986 11.6045L17.1464 12.9169L14.3071 11.6045L17.1467 10.3299ZM24.84 9.36109L22.2967 10.5364L19.4914 9.27707L22.0721 8.11848L24.84 9.36109ZM14.8573 13.9747L11.6028 15.4789L8.63966 14.1488L11.9849 12.6471L14.8573 13.9747ZM17.1464 15.0325L20.3381 16.5077L17.1167 17.9539L13.9252 16.5215L17.1464 15.0325ZM22.6606 15.4654L19.4354 13.9747L22.3082 12.6471L25.6234 14.1355L22.6606 15.4654ZM27.9684 13.0827L24.6189 11.579L27.1621 10.4034L30.5497 11.9241L27.9684 13.0827ZM17.1167 5.89407L19.7272 7.06592L17.1467 8.22451L14.5362 7.05241L17.1167 5.89407ZM7.10095 10.3901L9.67396 11.5793L6.29496 13.0962L3.68369 11.9241L7.10095 10.3901ZM30.5497 20.8522L17.1167 26.8823L3.68369 20.8522L6.34698 19.6569L16.625 24.2705C16.7813 24.3405 16.9489 24.3758 17.1167 24.3755C17.2845 24.3755 17.4523 24.3405 17.6088 24.2703L27.8864 19.6569L30.5497 20.8522ZM17.1167 22.386L3.68369 16.3559L6.27521 15.1926L16.6243 19.8382C16.7808 19.9085 16.9489 19.9437 17.1169 19.9437C17.2847 19.9437 17.4525 19.9085 17.6088 19.8382L27.9581 15.1926L30.5497 16.3559L17.1167 22.386Z" fill="#7261FF"/>
</g>
<defs>
<clipPath id="clip0_1_554">
<rect width="32.7778" height="32.7778" fill="white" transform="translate(0.727821 -0.000488281)"/>
</clipPath>
</defs>
</svg>
