<svg width="36" height="33" viewBox="0 0 36 33" fill="none" xmlns="http://www.w3.org/2000/svg">
<path d="M32.7467 30.8565V7.30271H26.9853V-0.000244141L8.12562 4.55825V11.0866H2.36416V30.8565H0.0241089V32.7775H35.0868V30.8565H32.7467ZM4.59256 30.8565V13.0076H13.9513V30.8565H4.59256ZM16.1797 30.8565V11.0866H10.354V6.01478L24.7568 2.53354L24.7246 30.8566H16.1797V30.8565ZM26.9853 30.8565V9.22375H30.5183V30.8565H26.9853Z" fill="#7261FF"/>
<path d="M8.15781 16.0417H10.3862V19.9057H8.15781V16.0417Z" fill="#7261FF"/>
<path d="M8.15781 23.0984H10.3862V26.9623H8.15781V23.0984Z" fill="#7261FF"/>
<path d="M18.9313 16.0417H21.1597V19.9057H18.9313V16.0417Z" fill="#7261FF"/>
<path d="M18.9313 8.98486H21.1597V12.8488H18.9313V8.98486Z" fill="#7261FF"/>
<path d="M18.9313 23.0984H21.1597V26.9623H18.9313V23.0984Z" fill="#7261FF"/>
</svg>
