<svg width="34" height="33" viewBox="0 0 34 33" fill="none" xmlns="http://www.w3.org/2000/svg">
<g clip-path="url(#clip0_1_505)">
<path d="M32.5957 8.998C32.5957 8.86984 32.5705 8.74122 32.5186 8.6199L30.1012 2.97579C29.6317 1.88023 28.6461 1.19971 27.529 1.19971H6.02595C4.91439 1.19971 3.95468 1.85782 3.45847 2.96106L0.926769 8.60499C0.870497 8.73053 0.843033 8.86452 0.843033 8.998L0.842712 11.241C0.842712 13.049 1.87176 14.6202 3.37435 15.4025V28.9803C3.37435 30.4135 4.54026 31.5794 5.97333 31.5794H27.5799C29.013 31.5794 30.179 30.4135 30.179 28.9803V15.342C31.6192 14.5408 32.5962 13.0033 32.5962 11.2411L32.5957 8.998ZM5.21042 3.74799C5.31585 3.51355 5.56207 3.12022 6.02595 3.12022H27.5291C28.0029 3.12022 28.238 3.50375 28.336 3.73211L30.18 8.03765H3.28619L5.21042 3.74799ZM5.29492 28.9803V26.8083H12.5279V29.6588H5.97327C5.60554 29.6588 5.29492 29.3481 5.29492 28.9803ZM19.1047 29.6588H14.4486V19.7144H19.1047V29.6588ZM27.5799 29.6588H21.0252V26.8083H28.2583V28.9803C28.2583 29.3481 27.9476 29.6588 27.5799 29.6588ZM28.2584 24.8877H21.0253V19.1861C21.0253 18.4184 20.4007 17.7938 19.6331 17.7938H13.9221C13.1534 17.7938 12.5281 18.4183 12.5281 19.1861V24.8877H5.29505V15.9246C5.37373 15.9286 5.45286 15.9306 5.5325 15.9306C7.0516 15.9306 8.4042 15.2047 9.2618 14.0814C10.1194 15.2047 11.472 15.9306 12.9912 15.9306C14.5103 15.9306 15.8629 15.2047 16.7205 14.0814C17.5781 15.2047 18.9307 15.9306 20.4498 15.9306C21.969 15.9306 23.3216 15.2047 24.1792 14.0814C25.0368 15.2047 26.3894 15.9306 27.9085 15.9306C28.0264 15.9306 28.1428 15.9248 28.2585 15.9162L28.2584 24.8877ZM27.9084 14.0101C26.3815 14.0101 25.1394 12.7679 25.1394 11.241C25.1394 10.7107 24.7094 10.2808 24.1791 10.2808C23.6487 10.2808 23.2188 10.7107 23.2188 11.241C23.2188 12.7679 21.9766 14.0101 20.4497 14.0101C18.9228 14.0101 17.6806 12.7679 17.6806 11.241C17.6806 10.7107 17.2507 10.2808 16.7203 10.2808C16.19 10.2808 15.7601 10.7107 15.7601 11.241C15.7601 12.7679 14.5179 14.0101 12.991 14.0101C11.4642 14.0101 10.222 12.7679 10.222 11.241C10.222 10.7107 9.79201 10.2808 9.26167 10.2808C8.73134 10.2808 8.30139 10.7107 8.30139 11.241C8.30139 12.7679 7.05922 14.0101 5.53237 14.0101C4.00551 14.0101 2.76329 12.7679 2.76329 11.241V9.95829H30.6756V11.241C30.6756 12.7679 29.4343 14.0101 27.9084 14.0101Z" fill="#7261FF"/>
</g>
<defs>
<clipPath id="clip0_1_505">
<rect width="32.7778" height="32.7778" fill="white" transform="translate(0.330566 0.000488281)"/>
</clipPath>
</defs>
</svg>
