<svg width="33" height="33" viewBox="0 0 33 33" fill="none" xmlns="http://www.w3.org/2000/svg">
<path d="M32.2367 7.06734L16.8081 0.0851657C16.5559 -0.0289803 16.2668 -0.0286602 16.0149 0.0858059L0.650333 7.06798C0.307447 7.22381 0.0873489 7.5656 0.0873489 7.94223V31.8172C0.0873489 32.3475 0.517301 32.7775 1.04764 32.7775H31.8408C32.3712 32.7775 32.8011 32.3475 32.8011 31.8172V7.94223C32.801 7.56509 32.5803 7.22278 32.2367 7.06734ZM22.494 27.0158C23.0243 27.0158 23.4543 26.5858 23.4543 26.0555V25.0952H25.3748V30.8569H19.6131V25.0952H21.5337V26.0555C21.5337 26.5859 21.9636 27.0158 22.494 27.0158ZM25.3748 23.1746H18.6528C18.1225 23.1746 17.6925 23.6046 17.6925 24.1349V30.8569H15.1318C15.1318 29.332 15.1318 17.8425 15.1318 16.4526C15.1318 15.9223 14.7018 15.4923 14.1715 15.4923H7.44948V13.5717H25.3748V23.1746ZM7.44948 23.1746V17.4129H9.37005V18.3732C9.37005 18.9035 9.80001 19.3335 10.3303 19.3335C10.8607 19.3335 11.2906 18.9035 11.2906 18.3732V17.4129H13.2112V23.1746H7.44948ZM7.44948 25.0952H9.37005V26.0555C9.37005 26.5858 9.80001 27.0158 10.3303 27.0158C10.8607 27.0158 11.2906 26.5858 11.2906 26.0555V25.0952H13.2112V30.8569H7.44948V25.0952ZM30.8805 30.8569H27.2954V12.6115C27.2954 12.0811 26.8654 11.6512 26.3351 11.6512H6.48919C5.95886 11.6512 5.52891 12.0811 5.52891 12.6115V30.8569H2.00786V8.56065L16.413 2.01445L30.8805 8.56174V30.8569Z" fill="#7261FF"/>
<path d="M12.571 7.49007C12.571 8.02041 13.0009 8.45036 13.5313 8.45036H19.293C19.8233 8.45036 20.2533 8.02041 20.2533 7.49007C20.2533 6.95974 19.8233 6.52979 19.293 6.52979H13.5313C13.0009 6.52979 12.571 6.95974 12.571 7.49007Z" fill="#7261FF"/>
</svg>
